#!OML:ASF G:\JayActor3\Patient Classification 1\Patient 1\Session 6\male.ASF
:FULLY-SPECIFIED
:DEGREES
1103
root -28.567 17.2945 9.45259 548.559 -53.1024 -543.29
lowerback 9.67523 -1.11424 7.15891
upperback 1.16365 -0.75783 2.11486
thorax -4.27423 -0.533211 -1.71094
lowerneck 10.344 -13.9827 -3.21933
upperneck -14.5875 -18.7653 5.71833
head -5.21771 -9.49728 3.53912
rclavicle -7.63333e-014 -1.59028e-014
rhumerus -21.8503 21.8977 -89.4976
rradius 54.0212
rwrist -5.06015
rhand -19.1387 -12.7961
rfingers 7.12502
rthumb 7.17129 -42.6546
lclavicle -7.63333e-014 -1.59028e-014
lhumerus -59.4951 25.9528 60.6791
lradius 17.676
lwrist 18.9389
lhand -17.9115 10.6279
lfingers 7.12502
lthumb 8.35574 40.4426
rfemur -1.20604 -0.207435 30.2619
rtibia 14.4014
rfoot -13.7673 -13.1158
rtoes 1.03456
lfemur -48.1704 13.4926 -21.3936
ltibia 63.7878
lfoot -10.7565 -12.0448
ltoes -17.413
1104
root -28.6669 17.2814 9.37957 548.179 -52.4749 -542.941
lowerback 9.52352 -1.05815 7.39659
upperback 1.36038 -0.694286 2.12901
thorax -3.97923 -0.496769 -1.84176
lowerneck 10.2528 -13.9233 -3.22751
upperneck -14.776 -18.689 5.7719
head -5.25919 -9.46545 3.55608
rclavicle 8.8658e-014 -6.83819e-014
rhumerus -22.2105 22.2322 -89.703
rradius 55.0101
rwrist -5.4308
rhand -19.1147 -12.7608
rfingers 7.12502
rthumb 7.19444 -42.6185
lclavicle 8.8658e-014 -6.83819e-014
lhumerus -60.2699 26.7873 59.447
lradius 16.8545
lwrist 17.9495
lhand -17.7846 10.5469
lfingers 7.12502
lthumb 8.47819 40.3568
rfemur -1.02047 -0.194986 30.3259
rtibia 15.1685
rfoot -13.7868 -12.4012
rtoes 0.617251
lfemur -46.9812 13.1536 -21.7487
ltibia 59.9621
lfoot -11.0349 -12.7352
ltoes -17.0926
1105
root -28.7673 17.2659 9.30356 547.777 -51.8007 -542.599
lowerback 9.41311 -0.994545 7.57669
upperback 1.53411 -0.621945 2.16397
thorax -3.7295 -0.456134 -1.91838
lowerneck 10.1925 -13.8473 -3.24623
upperneck -14.9538 -18.5959 5.79727
head -5.30516 -9.42248 3.56766
rclavicle 6.36111e-015 -1.43125e-014
rhumerus -22.6416 22.6186 -89.9074
rradius 55.9051
rwrist -5.83614
rhand -19.0904 -12.702
rfingers 7.12502
rthumb 7.21792 -42.5589
lclavicle 6.36111e-015 -1.43125e-014
lhumerus -61.1496 27.6748 58.0869
lradius 16.0224
lwrist 16.7718
lhand -17.6839 10.3975
lfingers 7.12502
lthumb 8.57541 40.2033
rfemur -0.774265 -0.174343 30.3779
rtibia 15.9038
rfoot -13.7765 -11.639
rtoes 0.19428
lfemur -45.6384 12.9239 -22.0937
ltibia 56.0063
lfoot -11.3812 -13.3548
ltoes -16.5909
1106
root -28.8687 17.249 9.22427 547.368 -51.0751 -542.254
lowerback 9.32567 -0.941025 7.68782
upperback 1.66483 -0.56421 2.23895
thorax -3.53791 -0.423967 -1.91167
lowerneck 10.1877 -13.7339 -3.3323
upperneck -15.0986 -18.4652 5.7993
head -5.34778 -9.35562 3.58181
rclavicle -4.85035e-014 1.90833e-014
rhumerus -23.1597 23.136 -90.1211
rradius 56.6942
rwrist -6.28071
rhand -19.0684 -12.6017
rfingers 7.12502
rthumb 7.2391 -42.4579
lclavicle -4.85035e-014 1.90833e-014
lhumerus -62.2218 28.6419 56.5635
lradius 15.2068
lwrist 15.4258
lhand -17.603 10.1934
lfingers 7.12502
lthumb 8.65351 39.9961
rfemur -0.476593 -0.177618 30.4153
rtibia 16.5816
rfoot -13.7246 -10.7834
rtoes -0.156068
lfemur -44.1855 12.7678 -22.412
ltibia 51.9801
lfoot -11.8329 -13.7824
ltoes -16.2404
1107
root -28.9719 17.2303 9.14148 546.964 -50.3033 -541.895
lowerback 9.22965 -0.88527 7.76237
upperback 1.75294 -0.504234 2.33473
thorax -3.3857 -0.391885 -1.86255
lowerneck 10.2295 -13.6029 -3.46433
upperneck -15.1998 -18.316 5.80031
head -5.38122 -9.2768 3.60161
rclavicle -1.86858e-014 -2.54444e-014
rhumerus -23.7491 23.7235 -90.3533
rradius 57.3685
rwrist -6.75154
rhand -19.0637 -12.5214
rfingers 7.12502
rthumb 7.2437 -42.3774
lclavicle -1.86858e-014 -2.54444e-014
lhumerus -63.4529 29.6304 54.8718
lradius 14.4232
lwrist 13.9409
lhand -17.5124 9.97848
lfingers 7.12502
lthumb 8.74089 39.7775
rfemur -0.12627 -0.262262 30.4351
rtibia 17.161
rfoot -13.5952 -9.80351
rtoes -0.537959
lfemur -42.6742 12.6714 -22.6988
ltibia 47.9684
lfoot -12.6128 -13.8524
ltoes -16.7499
1108
root -29.0774 17.2103 9.05506 546.573 -49.4961 -541.519
lowerback 9.10934 -0.826555 7.81924
upperback 1.79767 -0.440412 2.44127
thorax -3.26515 -0.359032 -1.79245
lowerneck 10.2996 -13.4635 -3.62695
upperneck -15.2404 -18.1562 5.80758
head -5.3975 -9.19129 3.62497
rclavicle 8.11041e-014 -1.59028e-015
rhumerus -24.3981 24.347 -90.6093
rradius 57.9193
rwrist -7.2263
rhand -19.056 -12.4412
rfingers 7.12502
rthumb 7.25108 -42.297
lclavicle 8.11041e-014 -1.59028e-015
lhumerus -64.8117 30.5823 53.0499
lradius 13.6948
lwrist 12.4026
lhand -17.3898 9.79726
lfingers 7.12502
lthumb 8.85921 39.5913
rfemur 0.282149 -0.458303 30.4306
rtibia 17.6157
rfoot -13.3775 -8.6812
rtoes -0.959506
lfemur -41.1516 12.6064 -22.9371
ltibia 44.068
lfoot -13.6865 -13.5127
ltoes -18.0984
1109
root -29.1861 17.189 8.96474 546.175 -48.6644 -541.101
lowerback 8.95249 -0.760127 7.89611
upperback 1.81011 -0.365364 2.5466
thorax -3.15738 -0.321379 -1.73589
lowerneck 10.3768 -13.3364 -3.77976
upperneck -15.2245 -18.0055 5.831
head -5.39626 -9.11161 3.64913
rclavicle 6.75868e-015 -6.52014e-014
rhumerus -25.0791 24.9576 -90.8899
rradius 58.3374
rwrist -7.6749
rhand -19.0275 -12.4346
rfingers 7.12502
rthumb 7.27858 -42.2894
lclavicle 6.75868e-015 -6.52014e-014
lhumerus -66.2345 31.4436 51.1525
lradius 13.0405
lwrist 10.8839
lhand -17.2318 9.67782
lfingers 7.12502
lthumb 9.0117 39.4653
rfemur 0.764183 -0.783032 30.4139
rtibia 17.9251
rfoot -13.0633 -7.4228
rtoes -1.48327
lfemur -39.6625 12.5439 -23.0892
ltibia 40.3912
lfoot -14.9966 -12.7623
ltoes -19.937
1110
root -29.2963 17.1654 8.87101 545.732 -47.819 -540.595
lowerback 8.77376 -0.684193 8.03028
upperback 1.79607 -0.273013 2.64987
thorax -3.06384 -0.276433 -1.71488
lowerneck 10.4409 -13.2347 -3.89311
upperneck -15.1555 -17.8773 5.87149
head -5.37717 -9.0459 3.66983
rclavicle -5.1684e-014 0
rhumerus -25.7716 25.5135 -91.1939
rradius 58.6257
rwrist -8.06201
rhand -18.9586 -12.4891
rfingers 7.12502
rthumb 7.34516 -42.3416
lclavicle -5.1684e-014 0
lhumerus -67.6375 32.1612 49.2871
lradius 12.4782
lwrist 9.48035
lhand -17.0545 9.62924
lfingers 7.12502
lthumb 9.18279 39.4093
rfemur 1.32328 -1.10241 30.449
rtibia 18.0794
rfoot -12.7026 -6.15479
rtoes -2.01269
lfemur -38.2683 12.4654 -23.104
ltibia 37.0442
lfoot -16.4255 -11.6653
ltoes -22.0321
1111
root -29.4085 17.1394 8.77338 545.231 -46.9555 -539.995
lowerback 8.56721 -0.590383 8.23829
upperback 1.77235 -0.15371 2.73969
thorax -2.96234 -0.218563 -1.75147
lowerneck 10.4746 -13.1711 -3.92076
upperneck -15.0459 -17.7832 5.91762
head -5.34593 -9.00133 3.67791
rclavicle 6.91771e-014 0
rhumerus -26.4511 25.9663 -91.5178
rradius 58.7837
rwrist -8.35933
rhand -18.8478 -12.596
rfingers 7.12502
rthumb 7.45211 -42.4447
lclavicle 6.91771e-014 0
lhumerus -68.9244 32.6998 47.558
lradius 12.0173
lwrist 8.27512
lhand -16.8678 9.65635
lfingers 7.12502
lthumb 9.36288 39.4284
rfemur 1.9735 -1.41118 30.5423
rtibia 18.0789
rfoot -12.3002 -4.88844
rtoes -2.55602
lfemur -36.9923 12.3461 -22.9529
ltibia 34.1203
lfoot -17.8017 -10.4214
ltoes -23.7683
1112
root -29.5214 17.1107 8.67198 544.679 -46.0888 -539.312
lowerback 8.33613 -0.502954 8.49164
upperback 1.73976 -0.0426931 2.83645
thorax -2.8565 -0.16534 -1.8043
lowerneck 10.5023 -13.1162 -3.92186
upperneck -14.9095 -17.6943 5.97157
head -5.30674 -8.96104 3.68299
rclavicle 2.90226e-014 9.54166e-015
rhumerus -27.1161 26.3789 -91.8593
rradius 58.8108
rwrist -8.55015
rhand -18.7023 -12.7082
rfingers 7.12502
rthumb 7.59252 -42.5519
lclavicle 2.90226e-014 9.54166e-015
lhumerus -70.0849 33.0754 46.0824
lradius 11.6681
lwrist 7.35605
lhand -16.7451 9.6932
lfingers 7.12502
lthumb 9.48125 39.4599
rfemur 2.7037 -1.68932 30.6998
rtibia 17.9467
rfoot -11.884 -3.64341
rtoes -2.99904
lfemur -35.8624 12.1468 -22.6351
ltibia 31.6801
lfoot -19.0705 -9.1683
ltoes -25.0098
1113
root -29.6334 17.0785 8.56724 544.086 -45.2483 -538.565
lowerback 8.08636 -0.417451 8.79428
upperback 1.71264 0.0650193 2.92213
thorax -2.73381 -0.113404 -1.89483
lowerneck 10.5096 -13.0878 -3.85571
upperneck -14.7656 -17.6289 6.03317
head -5.26594 -8.93598 3.68072
rclavicle -3.26007e-014 1.11319e-014
rhumerus -27.742 26.6782 -92.2103
rradius 58.7195
rwrist -8.62849
rhand -18.5535 -12.7744
rfingers 7.12502
rthumb 7.73615 -42.6129
lclavicle -3.26007e-014 1.11319e-014
lhumerus -71.0323 33.2914 44.8997
lradius 11.42
lwrist 6.71566
lhand -16.6797 9.74508
lfingers 7.12502
lthumb 9.54437 39.5089
rfemur 3.50196 -1.93204 30.9247
rtibia 17.7137
rfoot -11.481 -2.45781
rtoes -3.35371
lfemur -34.8867 11.8562 -22.1742
ltibia 29.7462
lfoot -20.2092 -8.04177
ltoes -25.8172
1114
root -29.7427 17.0429 8.45984 543.478 -44.4634 -537.805
lowerback 7.83496 -0.361653 9.08599
upperback 1.6907 0.129437 3.01073
thorax -2.60826 -0.0825809 -1.97098
lowerneck 10.5219 -13.0588 -3.79491
upperneck -14.6292 -17.561 6.11889
head -5.22569 -8.9113 3.68677
rclavicle -7.37491e-014 -4.45278e-014
rhumerus -28.3322 26.9257 -92.565
rradius 58.5144
rwrist -8.58909
rhand -18.4376 -12.7675
rfingers 7.12502
rthumb 7.84795 -42.6019
lclavicle -7.37491e-014 -4.45278e-014
lhumerus -71.8203 33.4151 43.986
lradius 11.2658
lwrist 6.35267
lhand -16.6731 9.79186
lfingers 7.12502
lthumb 9.55076 39.5554
rfemur 4.3469 -2.14781 31.1901
rtibia 17.4277
rfoot -11.1154 -1.34579
rtoes -3.60591
lfemur -34.0464 11.4271 -21.6037
ltibia 28.2967
lfoot -21.1431 -7.22665
ltoes -25.9271
1115
root -29.8478 17.003 8.35032 542.887 -43.7476 -537.078
lowerback 7.59155 -0.338766 9.33038
upperback 1.67573 0.145278 3.09202
thorax -2.48466 -0.0749892 -2.02331
lowerneck 10.5523 -13.0189 -3.77994
upperneck -14.5019 -17.4797 6.25581
head -5.18296 -8.88182 3.7146
rclavicle -3.37934e-014 -3.02153e-014
rhumerus -28.8816 27.0982 -92.921
rradius 58.1976
rwrist -8.42939
rhand -18.3745 -12.7134
rfingers 7.12502
rthumb 7.90892 -42.5455
lclavicle -3.37934e-014 -3.02153e-014
lhumerus -72.4739 33.4957 43.2509
lradius 11.18
lwrist 6.17734
lhand -16.7089 9.8316
lfingers 7.12502
lthumb 9.51617 39.5967
rfemur 5.21349 -2.32623 31.4723
rtibia 17.1346
rfoot -10.8202 -0.330558
rtoes -3.80273
lfemur -33.3252 10.9262 -21.004
ltibia 27.2809
lfoot -21.9638 -6.69898
ltoes -25.8957
1116
root -29.9468 16.9591 8.23953 542.352 -43.1101 -536.425
lowerback 7.36067 -0.346446 9.48779
upperback 1.66547 0.114959 3.15743
thorax -2.3684 -0.089008 -2.03967
lowerneck 10.5791 -12.9879 -3.77682
upperneck -14.3969 -17.4095 6.426
head -5.14189 -8.86005 3.75503
rclavicle 2.28602e-014 -9.54166e-015
rhumerus -29.3852 27.1694 -93.2704
rradius 57.7723
rwrist -8.15202
rhand -18.3904 -12.5914
rfingers 7.12502
rthumb 7.89351 -42.4241
lclavicle 2.28602e-014 -9.54166e-015
lhumerus -73.0073 33.574 42.6143
lradius 11.1294
lwrist 6.09751
lhand -16.7877 9.86071
lfingers 7.12502
lthumb 9.44021 39.6293
rfemur 6.06067 -2.45557 31.7466
rtibia 16.8779
rfoot -10.615 0.578255
rtoes -3.96185
lfemur -32.7156 10.4301 -20.4466
ltibia 26.6269
lfoot -22.603 -6.60609
ltoes -25.8037
1117
root -30.0398 16.9114 8.12771 541.884 -42.5327 -535.867
lowerback 7.14471 -0.374543 9.53732
upperback 1.66046 0.0519834 3.20474
thorax -2.25915 -0.11772 -2.0126
lowerneck 10.6085 -12.9515 -3.82084
upperneck -14.2988 -17.3356 6.63501
head -5.09591 -8.8375 3.81306
rclavicle -4.41302e-014 -4.77083e-015
rhumerus -29.8454 27.1261 -93.5996
rradius 57.2439
rwrist -7.77204
rhand -18.4842 -12.4481
rfingers 7.12502
rthumb 7.80303 -42.2842
lclavicle -4.41302e-014 -4.77083e-015
lhumerus -73.4605 33.6895 41.9714
lradius 11.084
lwrist 5.99926
lhand -16.8826 9.88117
lfingers 7.12502
lthumb 9.3486 39.6539
rfemur 6.87078 -2.50391 32.0004
rtibia 16.6911
rfoot -10.5085 1.37054
rtoes -4.10044
lfemur -32.1859 9.99569 -19.9606
ltibia 26.2623
lfoot -23.0197 -7.0554
ltoes -25.5634
